<svg width="16" height="16" viewBox="0 0 16 16" fill="none" xmlns="http://www.w3.org/2000/svg">
<path d="M7.99984 7.33341C7.63165 7.33341 7.33317 7.63189 7.33317 8.00008C7.33317 8.36827 7.63165 8.66675 7.99984 8.66675C8.36803 8.66675 8.6665 8.36827 8.6665 8.00008C8.6665 7.63189 8.36803 7.33341 7.99984 7.33341Z" stroke="#667085" stroke-width="1.25" stroke-linecap="round" stroke-linejoin="round"/>
<path d="M3.33333 7.33341C2.96514 7.33341 2.66667 7.63189 2.66667 8.00008C2.66667 8.36827 2.96514 8.66675 3.33333 8.66675C3.70152 8.66675 4 8.36827 4 8.00008C4 7.63189 3.70152 7.33341 3.33333 7.33341Z" stroke="#667085" stroke-width="1.25" stroke-linecap="round" stroke-linejoin="round"/>
<path d="M12.6668 7.33341C12.2986 7.33341 12.0002 7.63189 12.0002 8.00008C12.0002 8.36827 12.2986 8.66675 12.6668 8.66675C13.035 8.66675 13.3335 8.36827 13.3335 8.00008C13.3335 7.63189 13.035 7.33341 12.6668 7.33341Z" stroke="#667085" stroke-width="1.25" stroke-linecap="round" stroke-linejoin="round"/>
</svg>
