<svg width="12" height="12" viewBox="0 0 12 12" fill="none" xmlns="http://www.w3.org/2000/svg">
<g clip-path="url(#clip0_754_1931)">
<path d="M8.23923 1.95403C8.35365 1.81866 8.49519 1.70847 8.65482 1.63049C8.81445 1.5525 8.98867 1.50844 9.16639 1.5011C9.3441 1.49376 9.5214 1.5233 9.68699 1.58785C9.85257 1.6524 10.0028 1.75053 10.1281 1.876C10.2535 2.00147 10.3511 2.15151 10.4149 2.31658C10.4787 2.48164 10.5071 2.6581 10.4985 2.8347C10.4899 3.01131 10.4443 3.18419 10.3647 3.34233C10.2852 3.50046 10.1733 3.64039 10.0364 3.75318L3.97105 9.82532L1.5 10.5L2.17392 8.02617L8.23923 1.95403Z" stroke="#24292F" stroke-width="1.25" stroke-linecap="round" stroke-linejoin="round"/>
<path d="M7.5 3L9 4.5" stroke="#24292F" stroke-width="1.25" stroke-linecap="round" stroke-linejoin="round"/>
</g>
<defs>
<clipPath id="clip0_754_1931">
<rect width="12" height="12" fill="white"/>
</clipPath>
</defs>
</svg>
