<svg width="12" height="12" viewBox="0 0 12 12" fill="none" xmlns="http://www.w3.org/2000/svg">
<path d="M7.14645 8.35355C6.95118 8.15829 6.95118 7.84171 7.14645 7.64645C7.34171 7.45118 7.65829 7.45118 7.85355 7.64645L9.85355 9.64645C10.0488 9.84171 10.0488 10.1583 9.85355 10.3536C9.65829 10.5488 9.34171 10.5488 9.14645 10.3536L7.14645 8.35355Z" fill="#667085"/>
<path fill-rule="evenodd" clip-rule="evenodd" d="M2 5.5C2 7.433 3.567 9 5.5 9C7.433 9 9 7.433 9 5.5C9 3.567 7.433 2 5.5 2C3.567 2 2 3.567 2 5.5ZM8 5.5C8 6.88071 6.88071 8 5.5 8C4.11929 8 3 6.88071 3 5.5C3 4.11929 4.11929 3 5.5 3C6.88071 3 8 4.11929 8 5.5Z" fill="#667085"/>
</svg>
