<svg width="16" height="16" viewBox="0 0 16 16" fill="none" xmlns="http://www.w3.org/2000/svg">
<path d="M9.33325 12.6667C9.33325 11.6059 8.91182 10.5885 8.16168 9.83832C7.41153 9.08818 6.39412 8.66675 5.33325 8.66675C4.27239 8.66675 3.25497 9.08818 2.50482 9.83832C1.75468 10.5885 1.33325 11.6059 1.33325 12.6667" stroke="#24292F" stroke-width="1.25" stroke-linecap="round" stroke-linejoin="round"/>
<path d="M5.33341 8.66659C6.80617 8.66659 8.00008 7.47268 8.00008 5.99992C8.00008 4.52716 6.80617 3.33325 5.33341 3.33325C3.86066 3.33325 2.66675 4.52716 2.66675 5.99992C2.66675 7.47268 3.86066 8.66659 5.33341 8.66659Z" stroke="#24292F" stroke-width="1.25" stroke-linecap="round" stroke-linejoin="round"/>
<path d="M14.6667 12.6666C14.6667 11.6057 14.2453 10.5883 13.4952 9.83816C12.745 9.08801 11.7276 8.66659 10.6667 8.66659C11.374 8.66659 12.0523 8.38563 12.5524 7.88554C13.0525 7.38544 13.3334 6.70716 13.3334 5.99992C13.3334 5.29267 13.0525 4.6144 12.5524 4.1143C12.0523 3.6142 11.374 3.33325 10.6667 3.33325" stroke="#24292F" stroke-width="1.25" stroke-linecap="round" stroke-linejoin="round"/>
</svg>
